<svg width="2008" height="2073" viewBox="0 0 2008 2073" fill="none" xmlns="http://www.w3.org/2000/svg">
<path d="M311 2H401M311 2V90.1873M311 2H225.605M1751 2H1661M1751 2V90.1873M1751 2H1835.5M311 1037H401M311 1037V949.697M311 1037H0M1031 1037V2M1031 1037H941M1031 1037H1121M1031 2H941M1031 2H1121M1391 2V1037M1391 2H1301M1391 2H1481M1391 1037H1301M1391 1037H1481M671 2V1037M671 2H581M671 2H761M671 1037H581M671 1037H761M491 2V1037M491 2H401M491 2H581M491 1037H401M491 1037H581M851 2V1037M851 2H761M851 2H941M851 1037H761M851 1037H941M1211 2V1037M1211 2H1121M1211 2H1301M1211 1037H1121M1211 1037H1301M1571 2V1037M1571 2H1481M1571 2H1661M1571 1037H1481M1571 1037H1661M401 2V1037M581 2V1037M761 2V1037M941 2V1037M1121 2V1037M1301 2V1037M1481 2V1037M1661 2V1037M1661 1037H1751V946.539M1751 519.5H311M1751 519.5V606.171M1751 519.5V434.092M1751 519.5H2008M311 519.5V433.461M311 519.5V606.171M311 519.5H0M311 778.25H1751M311 778.25V692.211M311 778.25V862.394M311 778.25H0M1751 778.25V862.394M1751 778.25V692.842M1751 260.75H311M1751 260.75V347.421M1751 260.75V178.375M311 260.75V175.469M311 260.75V347.421M311 260.75L0 262.898M1751 946.539V862.394M1751 946.539L311 949.697M1751 946.539H2008M1751 862.394H311M1751 862.394V777.618M1751 862.394H2008M1751 692.842V606.171M1751 692.842L311 692.211M1751 692.842H2008M1751 692.842V777.618M1751 606.171V434.092M1751 606.171H311M1751 606.171H2008M1751 434.092V347.421M1751 434.092L311 433.461M1751 434.092H2008M1751 347.421H311M1751 347.421V262.898M1751 347.421H2008M1751 178.375V90.1873M1751 178.375L311 175.469M1751 178.375H2008M1751 178.375V262.898M1751 90.1873H311M1751 90.1873H2008M311 90.1873V175.469M311 90.1873H0M311 175.469H0M311 347.421V433.461M311 347.421H0M311 433.461L0 434.092M311 606.171V692.211M311 606.171H0M311 692.211L0 692.842M311 862.394V949.697M311 862.394H0M311 949.697H0M1751 1036H1661M1751 1036V1124.19M1751 1036H2008M1751 2071H1661M1751 2071V1980.54M1751 2071H1835.5M311 2071H401M311 2071V1983.7M311 2071H225.605M1031 2071V1036M1031 2071H941M1031 2071H1121M1031 1036H941M1031 1036H1121M1391 1036V2071M1391 1036H1301M1391 1036H1481M1391 2071H1301M1391 2071H1481M671 1036V2071M671 1036H581M671 1036H761M671 2071H581M671 2071H761M491 1036V2071M491 1036H401M491 1036H581M491 2071H401M491 2071H581M851 1036V2071M851 1036H761M851 1036H941M851 2071H761M851 2071H941M1211 1036V2071M1211 1036H1121M1211 1036H1301M1211 2071H1121M1211 2071H1301M1571 1036V2071M1571 1036H1481M1571 1036H1661M1571 2071H1481M1571 2071H1661M401 1036H311V1124.19M401 1036V2071M581 1036V2071M761 1036V2071M941 1036V2071M1121 1036V2071M1301 1036V2071M1481 1036V2071M1661 1036V2071M1751 1553.5H311M1751 1553.5V1640.17M1751 1553.5V1468.09M311 1553.5V1467.46M311 1553.5V1640.17M311 1553.5H0M311 1812.25H1751M311 1812.25V1726.21M311 1812.25V1896.39M311 1812.25H0M1751 1812.25V1896.39M1751 1812.25V1726.84M1751 1812.25H2008M1751 1294.75H311M1751 1294.75V1381.42M1751 1294.75V1212.37M1751 1294.75H2008M311 1294.75V1209.47M311 1294.75V1381.42M311 1294.75H0M1751 1980.54V1896.39M1751 1980.54L311 1983.7M1751 1980.54H2008M1751 1896.39V1726.84M1751 1896.39H311M1751 1896.39H2008M1751 1726.84V1640.17M1751 1726.84L311 1726.21M1751 1726.84H2008M1751 1640.17H311M1751 1640.17V1554.13M1751 1640.17H2008M1751 1468.09V1381.42M1751 1468.09L311 1467.46M1751 1468.09H2008M1751 1468.09V1554.13M1751 1381.42V1212.37M1751 1381.42H311M1751 1381.42H2008M1751 1212.37V1124.19M1751 1212.37L311 1209.47M1751 1212.37H2008M1751 1124.19H311M1751 1124.19C1763 1124.19 1927.33 1124.19 2008 1124.19M311 1124.19V1209.47M311 1124.19H0M311 1209.47H0M311 1381.42V1467.46M311 1381.42H0M311 1467.46L0 1468.09M311 1640.17V1726.21M311 1640.17H0M311 1726.21H0M311 1896.39V1983.7M311 1896.39H0M311 1983.7H0M2008 90.1873V2H1925M2008 90.1873V178.375M2008 178.375V262.898M1751 262.898H2008M2008 262.898V347.421M2008 347.421V434.092M2008 434.092V519.5M2008 519.5V606.171M2008 606.171V692.842M2008 692.842V777.618M1751 777.618H2008M2008 777.618V862.394M2008 862.394V946.539M2008 946.539V1036M2008 1036V1124.19M2008 1124.19V1212.37M2008 1212.37V1294.75M2008 1294.75V1381.42M2008 1381.42V1468.09M2008 1468.09V1554.13M1751 1554.13H2008M2008 1554.13V1640.17M2008 1640.17V1726.84M2008 1726.84V1812.25M2008 1812.25V1896.39M2008 1896.39V1980.54M2008 1980.54V2071H1925M1835.5 2071V2M1835.5 2071H1925M1835.5 2H1925M1925 2V2071M0 90.1873V2H53.5M0 90.1873V175.469M0 175.469V262.898M0 262.898V347.421M0 347.421V434.092M0 434.092V519.5M0 519.5V606.171M0 606.171V692.842M0 692.842V778.25M0 778.25V862.394M0 862.394V949.697M0 949.697V1037M0 1037V1124.19M0 1124.19V1209.47M0 1209.47V1294.75M0 1294.75V1381.42M0 1381.42V1468.09M0 1468.09V1553.5M0 1553.5V1640.17M0 1640.17V1726.21M0 1726.21V1812.25M0 1812.25V1896.39M0 1896.39V1983.7M0 1983.7V2071H53.5M225.605 2071V2M225.605 2071H138M225.605 2H138M138 2071V2M138 2071H53.5M138 2H53.5M53.5 2V2071" stroke="white" stroke-opacity="0.5" stroke-width="4"/>
</svg>
