<svg width="636" height="300" viewBox="0 0 636 300" fill="none" xmlns="http://www.w3.org/2000/svg">
<path d="M236.428 116.94C145.821 95.3651 70.5035 245.704 18.5933 297.297H635.618C608.089 195.285 507.468 -9.41579 416.67 0.672853C296.509 14.0241 349.687 143.909 236.428 116.94Z" fill="#7FC1E9"/>
<path d="M185.725 190.305C187.853 141.22 126.16 72.928 101.339 157.582C93.6041 183.962 107.013 202.398 110.559 267.133" stroke="#02365E" stroke-width="3.80029" stroke-linecap="round"/>
<path d="M128.671 216.877H223.472L212.938 293.403H139.204L128.671 216.877Z" fill="#FA9018"/>
<path d="M186.962 229.441H130.384V216.306H225.185L213.192 291.69H178.355L187.055 286.719C191.678 284.077 194.898 279.529 195.856 274.292L200.981 246.255C202.581 237.503 195.859 229.441 186.962 229.441Z" fill="#F0600F"/>
<path d="M141.234 240.863L146.945 279.697" stroke="#FED9AF" stroke-width="3.80029" stroke-linecap="round"/>
<path d="M128.671 216.877H223.472L212.938 293.403H139.204L128.671 216.877Z" stroke="#02365E" stroke-width="3.80029"/>
<path d="M116.106 183.755H239.462L233.764 216.878H124.088L116.106 183.755Z" fill="#FA9018"/>
<path d="M237.177 183.183H212.62C222.215 197.346 213.191 211.547 207.48 216.877H230.895L237.177 183.183Z" fill="#F0600F"/>
<path d="M165.22 192.321H123.531" stroke="#FED9AF" stroke-width="3.80029" stroke-linecap="round"/>
<path d="M113.822 183.755H237.177L231.48 216.878H121.804L113.822 183.755Z" stroke="#02365E" stroke-width="3.80029" stroke-linejoin="round"/>
<path d="M185.602 173.463C190.569 166.366 202.351 151.462 209.731 148.623C211.861 163.764 210.015 189.928 185.602 173.463Z" fill="#2B99D6" stroke="#02365E" stroke-width="3.80029" stroke-linecap="round" stroke-linejoin="round"/>
<path d="M193.774 170.048L203.483 157.484" stroke="#F7FCFF" stroke-width="3.80029" stroke-linecap="round" stroke-linejoin="round"/>
<path d="M185.602 173.463C190.569 166.366 202.351 151.462 209.731 148.623C211.861 163.764 210.015 189.928 185.602 173.463Z" stroke="#02365E" stroke-width="3.80029" stroke-linecap="round" stroke-linejoin="round"/>
<path d="M188.635 173.474C193.203 171.951 200.057 170.276 202.341 164.337" stroke="#02365E" stroke-width="3.80029" stroke-linecap="round" stroke-linejoin="round"/>
<path d="M177.795 162.818C168.569 150.044 131.665 162.818 131.665 162.818C134.503 177.722 173.537 174.883 177.795 162.818Z" fill="#2B99D6" stroke="#02365E" stroke-width="3.80029" stroke-linecap="round" stroke-linejoin="round"/>
<path d="M165.791 161.482C157.986 160.34 153.227 161.482 149.801 161.482" stroke="#F7FCFF" stroke-width="3.80029" stroke-linecap="round" stroke-linejoin="round"/>
<path d="M177.795 162.818C168.569 150.044 131.665 162.818 131.665 162.818C134.503 177.722 173.537 174.883 177.795 162.818Z" stroke="#02365E" stroke-width="3.80029" stroke-linecap="round" stroke-linejoin="round"/>
<path d="M177.213 163.767C171.312 163.576 163.507 163.767 156.083 166.051" stroke="#02365E" stroke-width="3.80029" stroke-linecap="round" stroke-linejoin="round"/>
<path d="M158.634 128.752C155.322 122.601 153.524 105.757 172.828 87.5887C176.613 102.966 178.506 132.158 158.634 128.752Z" fill="#2B99D6" stroke="#02365E" stroke-width="3.80029" stroke-linecap="round" stroke-linejoin="round"/>
<path d="M158.938 122.077C159.918 114.844 160.76 110.8 168.076 103.802" stroke="#F7FCFF" stroke-width="3.80029" stroke-linecap="round" stroke-linejoin="round"/>
<path d="M158.634 128.752C155.322 122.601 153.524 105.757 172.828 87.5887C176.613 102.966 178.506 132.158 158.634 128.752Z" stroke="#02365E" stroke-width="3.80029" stroke-linecap="round" stroke-linejoin="round"/>
<path d="M160.081 126.645C161.985 122.457 166.02 113.282 166.934 110.083" stroke="#02365E" stroke-width="3.80029" stroke-linecap="round" stroke-linejoin="round"/>
<path d="M116.761 93.9764C113.355 108.171 122.912 116.45 128.116 118.816C144.582 91.5635 126.46 77.6533 115.342 74.1048C117.234 74.8145 120.168 79.7824 116.761 93.9764Z" fill="#2B99D6" stroke="#02365E" stroke-width="3.80029" stroke-linecap="round" stroke-linejoin="round"/>
<path d="M119.533 82.6714C119.083 92.7211 118.962 108.37 124.102 111.797" stroke="#F7FCFF" stroke-width="3.80029" stroke-linecap="round" stroke-linejoin="round"/>
<path d="M116.761 93.9764C113.355 108.171 122.912 116.45 128.116 118.816C144.582 91.5635 126.46 77.6533 115.342 74.1048C117.234 74.8145 120.168 79.7824 116.761 93.9764Z" stroke="#02365E" stroke-width="3.80029" stroke-linecap="round" stroke-linejoin="round"/>
<path d="M126.957 114.652C126.576 108.56 125.472 95.9203 124.102 94.0928" stroke="#02365E" stroke-width="3.80029" stroke-linecap="round" stroke-linejoin="round"/>
<path d="M144.439 119.526C134.03 129.935 112.503 151.604 109.664 155.011C106.115 159.269 156.504 160.688 144.439 119.526Z" fill="#2B99D6" stroke="#02365E" stroke-width="3.80029" stroke-linecap="round" stroke-linejoin="round"/>
<path d="M137.237 128.358C134.001 133.878 125.587 145.947 117.82 150.059" stroke="#F7FCFF" stroke-width="3.80029" stroke-linecap="round" stroke-linejoin="round"/>
<path d="M144.439 119.526C134.03 129.935 112.503 151.604 109.664 155.011C106.115 159.269 156.504 160.688 144.439 119.526Z" stroke="#02365E" stroke-width="3.80029" stroke-linecap="round" stroke-linejoin="round"/>
<path d="M144.661 120.934C141.044 127.978 133.011 142.636 129.813 144.92" stroke="#02365E" stroke-width="3.80029" stroke-linecap="round" stroke-linejoin="round"/>
<path d="M77.7271 137.978C81.1337 131.165 100.438 132.301 109.664 133.72C106.825 159.269 73.9421 160.925 57.8555 158.56C63.06 154.538 74.3206 144.791 77.7271 137.978Z" fill="#2B99D6" stroke="#02365E" stroke-width="3.80029" stroke-linecap="round" stroke-linejoin="round"/>
<path d="M105.256 134.64C96.6894 134.64 80.9273 137.61 72.7036 147.204" stroke="#F7FCFF" stroke-width="3.80029" stroke-linecap="round" stroke-linejoin="round"/>
<path d="M77.7271 137.978C81.1337 131.165 100.438 132.301 109.664 133.72C106.825 159.269 73.9421 160.925 57.8555 158.56C63.06 154.538 74.3206 144.791 77.7271 137.978Z" stroke="#02365E" stroke-width="3.80029" stroke-linecap="round" stroke-linejoin="round"/>
<path d="M109.254 134.069C109.254 134.069 100.116 141.493 89.2656 144.349" stroke="#02365E" stroke-width="3.80029" stroke-linecap="round" stroke-linejoin="round"/>
<path d="M101.857 162.108C112.266 167.785 132.942 182.547 132.375 196.173C121.019 199.249 99.0185 196.741 101.857 162.108Z" fill="#2B99D6" stroke="#02365E" stroke-width="3.80029" stroke-linecap="round" stroke-linejoin="round"/>
<path d="M105.256 170.047C105.827 177.852 108.683 188.322 118.391 192.891" stroke="#F7FCFF" stroke-width="3.80029" stroke-linecap="round" stroke-linejoin="round"/>
<path d="M101.857 162.108C112.266 167.785 132.942 182.547 132.375 196.173C121.019 199.249 99.0185 196.741 101.857 162.108Z" stroke="#02365E" stroke-width="3.80029" stroke-linecap="round" stroke-linejoin="round"/>
<path d="M103.542 163.766C105.256 169.096 109.71 180.328 113.822 182.612" stroke="#02365E" stroke-width="3.80029" stroke-linecap="round" stroke-linejoin="round"/>
<path d="M99.1474 193.335L64.9526 220.508C76.1358 226.914 97.599 230.449 99.1474 193.335Z" fill="#2B99D6" stroke="#02365E" stroke-width="3.80029" stroke-linecap="round" stroke-linejoin="round"/>
<path d="M94.9758 199.173C89.0746 205.265 75.1019 217.676 66.4214 218.59" stroke="#F7FCFF" stroke-width="3.80029" stroke-linecap="round" stroke-linejoin="round"/>
<path d="M99.1474 193.335L64.9526 220.508C76.1358 226.914 97.599 230.449 99.1474 193.335Z" stroke="#02365E" stroke-width="3.80029" stroke-linecap="round" stroke-linejoin="round"/>
<path d="M97.2605 198.031C93.4533 203.361 85.4961 214.136 84.1255 214.593" stroke="#02365E" stroke-width="3.80029" stroke-linecap="round" stroke-linejoin="round"/>
<path d="M108.245 216.756C118.654 222.197 139.613 237.195 140.181 253.66C130.009 254.37 109.38 247.982 108.245 216.756Z" fill="#2B99D6" stroke="#02365E" stroke-width="3.80029" stroke-linecap="round" stroke-linejoin="round"/>
<path d="M112.68 222.017C110.396 233.439 124.102 248.287 129.813 252.285" stroke="#F7FCFF" stroke-width="3.80029" stroke-linecap="round" stroke-linejoin="round"/>
<path d="M108.245 216.756C118.654 222.197 139.613 237.195 140.181 253.66C130.009 254.37 109.38 247.982 108.245 216.756Z" stroke="#02365E" stroke-width="3.80029" stroke-linecap="round" stroke-linejoin="round"/>
<path d="M107.541 217.449L124.673 238.579" stroke="#02365E" stroke-width="3.80029" stroke-linecap="round" stroke-linejoin="round"/>
<path d="M107.535 240.175C100.133 249.44 83.5245 267.623 76.3076 266.233C86.254 274.919 106.424 281.867 107.535 240.175Z" fill="#2B99D6" stroke="#02365E" stroke-width="3.80029" stroke-linecap="round" stroke-linejoin="round"/>
<path d="M104.114 248.287C101.449 252.856 93.0347 262.792 80.6992 265.991" stroke="#F7FCFF" stroke-width="3.80029" stroke-linecap="round" stroke-linejoin="round"/>
<path d="M107.535 240.175C100.133 249.44 83.5245 267.623 76.3076 266.233C86.254 274.919 106.424 281.867 107.535 240.175Z" stroke="#02365E" stroke-width="3.80029" stroke-linecap="round" stroke-linejoin="round"/>
<path d="M105.256 246.003L97.2607 259.138" stroke="#02365E" stroke-width="3.80029" stroke-linecap="round" stroke-linejoin="round"/>
<path d="M110.374 267.145C115.815 269.51 127.832 277.364 132.374 289.855C126.46 291.748 113.78 289.855 110.374 267.145Z" fill="#2B99D6"/>
<path d="M113.251 272.272L123.531 288.834" stroke="#F7FCFF" stroke-width="3.80029" stroke-linecap="round" stroke-linejoin="round"/>
<path d="M110.374 267.145C115.815 269.51 127.832 277.364 132.374 289.855C126.46 291.748 113.78 289.855 110.374 267.145Z" stroke="#02365E" stroke-width="3.80029" stroke-linecap="round" stroke-linejoin="round"/>
<path d="M112.109 267.704L120.104 279.697" stroke="#02365E" stroke-width="3.80029" stroke-linecap="round" stroke-linejoin="round"/>
<path d="M189.206 224.301H216.047" stroke="#02365E" stroke-width="3.80029" stroke-linecap="round"/>
<path d="M201.77 231.725H214.905" stroke="#02365E" stroke-width="3.80029" stroke-linecap="round"/>
<path d="M220.045 199.745H228.04" stroke="#02365E" stroke-width="3.80029" stroke-linecap="round"/>
<path d="M221.187 191.75H229.182" stroke="#02365E" stroke-width="3.80029" stroke-linecap="round"/>
<path d="M218.902 207.741H226.898" stroke="#02365E" stroke-width="3.80029" stroke-linecap="round"/>
<path d="M201.77 277.412H208.623" stroke="#02365E" stroke-width="3.80029" stroke-linecap="round"/>
<path d="M204.055 269.417H210.337" stroke="#02365E" stroke-width="3.80029" stroke-linecap="round"/>
<path d="M199.485 285.408H207.481" stroke="#02365E" stroke-width="3.80029" stroke-linecap="round"/>
<path d="M539.396 56.9496C539.396 51.8353 545.32 48.9996 549.304 52.2067L586.357 82.0364C587.793 83.1922 588.628 84.9361 588.628 86.7793V152.193C588.628 153.967 587.854 155.652 586.51 156.809L549.456 188.682C545.508 192.078 539.396 189.273 539.396 184.066V124.312V56.9496Z" fill="#F2463A"/>
<path d="M541.299 56.9496C541.299 53.4333 545.372 51.4837 548.111 53.6886L585.164 83.5183C586.151 84.313 586.725 85.512 586.725 86.7793V152.193C586.725 153.413 586.193 154.571 585.269 155.367L548.215 187.24C545.501 189.574 541.299 187.646 541.299 184.066V124.312V56.9496Z" stroke="#02365E" stroke-width="3.80511"/>
<rect x="361.922" y="22.624" width="187.671" height="187.671" rx="12.1778" fill="#F2463A"/>
<rect x="363.824" y="24.5266" width="183.866" height="183.866" rx="10.2752" stroke="#02365E" stroke-width="3.80511"/>
<line x1="1.66891" y1="-1.66891" x2="30.2082" y2="-1.66891" transform="matrix(0.950305 -0.311319 0.142786 0.989754 512.142 173.656)" stroke="#02365E" stroke-width="3.33781" stroke-linecap="round"/>
<line x1="1.66891" y1="-1.66891" x2="29.9667" y2="-1.66891" transform="matrix(0.956113 -0.292998 0.131572 0.991307 511.637 180.882)" stroke="#02365E" stroke-width="3.33781" stroke-linecap="round"/>
<line x1="1.66891" y1="-1.66891" x2="30.1473" y2="-1.66891" transform="matrix(0.951769 -0.306816 0.140014 0.990149 511.188 187.286)" stroke="#02365E" stroke-width="3.33781" stroke-linecap="round"/>
<line x1="1.66891" y1="-1.66891" x2="30.1473" y2="-1.66891" transform="matrix(0.951769 -0.306816 0.140014 0.990149 510.706 194.181)" stroke="#02365E" stroke-width="3.33781" stroke-linecap="round"/>
<rect x="304.869" y="22.624" width="200.432" height="187.671" rx="12.1778" fill="#FA9018"/>
<path d="M504.387 106.346L503.338 202.162C503.302 205.435 500.684 208.095 497.412 208.182L456.731 209.264C454.921 209.312 454.477 206.767 456.195 206.199C460.151 204.891 462.406 204.354 466.323 202.85C470.902 201.093 473.589 200.425 477.898 197.675C481.965 195.08 484.354 193.557 487.693 189.455C492.212 183.902 493.952 179.419 496.374 171.799C499.167 163.01 498.962 157.239 499.935 147.749C500.68 140.478 501.17 129.42 501.257 127.378C501.266 127.157 501.287 126.938 501.32 126.719L504.387 106.346Z" fill="#F0600F"/>
<rect x="322.885" y="45.5765" width="160.646" height="119.339" rx="6.69776" fill="#E1F3FF"/>
<rect x="324.787" y="47.4791" width="156.841" height="115.534" rx="4.79521" stroke="#02365E" stroke-width="3.80511"/>
<line x1="429.348" y1="176.223" x2="479.262" y2="176.223" stroke="#02365E" stroke-width="3.33781" stroke-linecap="round"/>
<line x1="429.348" y1="182.729" x2="479.262" y2="182.729" stroke="#02365E" stroke-width="3.33781" stroke-linecap="round"/>
<line x1="429.348" y1="189.234" x2="479.262" y2="189.234" stroke="#02365E" stroke-width="3.33781" stroke-linecap="round"/>
<line x1="429.348" y1="195.741" x2="479.262" y2="195.741" stroke="#02365E" stroke-width="3.33781" stroke-linecap="round"/>
<ellipse cx="331.711" cy="183.903" rx="9.02954" ry="8.54637" fill="#A9DEFE"/>
<path d="M327.051 180.043C327.051 180.043 326.233 181.107 325.886 181.973C325.401 183.181 325.225 184.038 325.595 185.281C325.954 186.49 326.113 187.151 327.051 188.038C327.989 188.926 328.982 189.339 330.255 189.692C331.674 190.086 332.678 190.234 334.042 189.692C335.157 189.25 335.906 188.931 336.663 188.038C337.396 187.174 337.828 186.66 338.119 185.281C338.387 184.015 338.313 183.181 337.828 181.973C337.481 181.107 336.372 180.043 336.372 180.043M331.711 177.011V181.973" stroke="#02365E" stroke-width="2.22521" stroke-linecap="round" stroke-linejoin="round"/>
<path d="M331.711 194.352C337.649 194.352 342.643 189.771 342.643 183.903C342.643 178.035 337.649 173.454 331.711 173.454C325.773 173.454 320.779 178.035 320.779 183.903C320.779 189.771 325.773 194.352 331.711 194.352Z" stroke="#02365E" stroke-width="3.80511"/>
<rect x="306.772" y="24.5266" width="196.627" height="183.866" rx="10.2752" stroke="#02365E" stroke-width="3.80511"/>
<rect x="399.512" y="208.265" width="114.688" height="24.6881" fill="#F2463A"/>
<rect x="401.414" y="210.167" width="110.883" height="20.883" stroke="#02365E" stroke-width="3.80511"/>
<rect x="351.412" y="208.265" width="135.651" height="24.6881" fill="#FA9018"/>
<rect x="353.315" y="210.167" width="131.845" height="20.883" stroke="#02365E" stroke-width="3.80511"/>
<rect x="373.118" y="226.059" width="227.521" height="69.8135" rx="3.04444" fill="#F2463A"/>
<mask id="path-88-inside-1_203_6" fill="white">
<rect x="373.118" y="226.059" width="227.521" height="69.8135" rx="3.04444"/>
</mask>
<rect x="373.118" y="226.059" width="227.521" height="69.8135" rx="3.04444" stroke="#02365E" stroke-width="7.61021" mask="url(#path-88-inside-1_203_6)"/>
<rect x="265.083" y="226.059" width="249.227" height="69.8135" rx="3.04444" fill="#FA9018"/>
<mask id="path-90-inside-2_203_6" fill="white">
<rect x="265.083" y="226.059" width="249.227" height="69.8135" rx="3.04444"/>
</mask>
<rect x="265.083" y="226.059" width="249.227" height="69.8135" rx="3.04444" stroke="#02365E" stroke-width="7.61021" mask="url(#path-90-inside-2_203_6)"/>
<path d="M315.003 105.2V44.0523C315.003 39.6806 318.547 36.1367 322.918 36.1367H343.904" stroke="#FED9AF" stroke-width="3.80511" stroke-linecap="round" stroke-linejoin="round"/>
<path d="M147.977 275.192L256.075 259.842H468.518L256.075 292.122H147.977V275.192Z" fill="#FFB260" stroke="#02365E" stroke-width="3.80511" stroke-linejoin="round"/>
<rect x="147.977" y="277.105" width="166.651" height="17.2657" fill="#FA9018" stroke="#02365E" stroke-width="3.80511" stroke-linejoin="round"/>
<path d="M313.127 277.442L470.77 259.84V294.371H313.127V277.442Z" fill="#F2463A" stroke="#02365E" stroke-width="3.80511" stroke-linejoin="round"/>
<path d="M406.906 106.26L400.353 108.435M378.144 72.9196L368.678 80.1675L372.319 81.9795L378.144 72.9196ZM378.144 72.9196L387.246 74.0068L378.144 72.9196ZM378.144 72.9196L372.319 81.9795L378.144 72.9196ZM378.144 72.9196L377.052 83.0667L378.144 72.9196ZM378.144 72.9196L382.513 76.9059L378.144 72.9196ZM387.246 74.0068L390.523 78.3555L387.246 74.0068ZM387.246 74.0068L382.513 76.9059L387.246 74.0068ZM390.523 78.3555L391.615 85.9659L390.523 78.3555ZM390.523 78.3555L382.513 76.9059L390.523 78.3555ZM390.523 78.3555L385.425 82.7043L390.523 78.3555ZM391.615 85.9659L399.261 89.5899L391.615 85.9659ZM391.615 85.9659L385.425 82.7043L391.615 85.9659ZM391.615 85.9659L380.328 100.462L391.615 85.9659ZM391.615 85.9659L382.877 89.2275L391.615 85.9659ZM391.615 85.9659L394.527 96.4755L391.615 85.9659ZM399.261 89.5899L422.926 81.9795L399.261 89.5899ZM399.261 89.5899L394.527 96.4755L399.261 89.5899ZM399.261 89.5899L399.989 101.187L399.261 89.5899ZM399.261 89.5899H412.003H399.261ZM422.926 81.9795L417.829 89.5899L422.926 81.9795ZM422.926 81.9795L412.003 89.5899L422.926 81.9795ZM417.829 89.5899H424.382H417.829ZM417.829 89.5899H412.003H417.829ZM424.382 89.5899L416.008 99.737L424.382 89.5899ZM424.382 89.5899L399.989 101.187L424.382 89.5899ZM416.008 99.737L420.377 105.535L416.008 99.737ZM416.008 99.737L412.003 112.421L416.008 99.737ZM416.008 99.737L399.989 101.187L416.008 99.737ZM416.008 99.737L406.906 106.26L416.008 99.737ZM420.377 105.535L437.853 104.086L430.207 110.247L420.377 105.535ZM420.377 105.535L424.139 110.971L420.377 105.535ZM420.377 105.535L430.207 110.247L420.377 105.535ZM430.207 110.247L441.494 122.931L424.382 114.595L430.207 110.247ZM430.207 110.247L424.139 110.971L430.207 110.247ZM430.207 110.247L424.382 114.595L430.207 110.247ZM424.382 114.595L412.003 112.421L424.382 114.595ZM424.382 114.595L424.139 110.971L424.382 114.595ZM412.003 112.421L402.537 116.77L412.003 112.421ZM412.003 112.421L406.906 106.26L412.003 112.421ZM412.003 112.421L400.353 108.435L412.003 112.421ZM412.003 112.421L424.139 110.971L412.003 112.421ZM402.537 116.77L407.27 121.118L402.537 125.467V116.77ZM402.537 116.77V125.467V116.77ZM402.537 116.77L396.712 113.508L402.537 116.77ZM402.537 116.77L400.353 108.435L402.537 116.77ZM402.537 125.467L394.527 121.843L402.537 125.467ZM402.537 125.467L396.712 113.508L402.537 125.467ZM394.527 121.843L385.061 124.742L386.154 120.394L394.527 121.843ZM394.527 121.843L396.712 113.508L394.527 121.843ZM394.527 121.843L387.974 114.595L394.527 121.843ZM386.154 120.394L381.785 117.132L384.333 113.508L386.154 120.394ZM386.154 120.394L387.974 114.595L386.154 120.394ZM386.154 120.394L384.333 113.508L386.154 120.394ZM384.333 113.508L376.323 108.072L384.333 113.508ZM384.333 113.508L387.246 109.159L384.333 113.508ZM384.333 113.508L387.974 114.595L384.333 113.508ZM376.323 108.072L371.59 97.9251L376.323 108.072ZM376.323 108.072L387.246 109.159L376.323 108.072ZM376.323 108.072L380.328 100.462L376.323 108.072ZM371.59 97.9251L375.231 88.1403L371.59 97.9251ZM371.59 97.9251L380.328 100.462L371.59 97.9251ZM375.231 88.1403L370.862 84.8787L375.231 88.1403ZM375.231 88.1403L377.052 83.0667L375.231 88.1403ZM375.231 88.1403L380.328 100.462L375.231 88.1403ZM375.231 88.1403L382.877 89.2275L375.231 88.1403ZM375.231 88.1403L385.425 82.7043L375.231 88.1403ZM370.862 84.8787L372.319 81.9795L370.862 84.8787ZM370.862 84.8787L377.052 83.0667L370.862 84.8787ZM372.319 81.9795L377.052 83.0667L372.319 81.9795ZM377.052 83.0667L382.513 76.9059L377.052 83.0667ZM377.052 83.0667L385.425 82.7043L377.052 83.0667ZM382.513 76.9059L385.425 82.7043L382.513 76.9059ZM385.425 82.7043L382.877 89.2275L385.425 82.7043ZM394.527 96.4755L380.328 100.462L394.527 96.4755ZM394.527 96.4755L387.246 109.159L394.527 96.4755ZM394.527 96.4755L399.989 101.187L394.527 96.4755ZM380.328 100.462L382.877 89.2275L380.328 100.462ZM380.328 100.462L387.246 109.159L380.328 100.462ZM387.246 109.159L387.974 114.595L387.246 109.159ZM387.246 109.159L396.712 113.508L387.246 109.159ZM387.246 109.159L399.989 101.187L387.246 109.159ZM387.246 109.159L400.353 108.435L387.246 109.159ZM387.974 114.595L396.712 113.508L387.974 114.595ZM396.712 113.508L400.353 108.435L396.712 113.508ZM399.989 101.187L406.906 106.26L399.989 101.187ZM399.989 101.187L400.353 108.435L399.989 101.187Z" stroke="#A9DEFE" stroke-width="2.22521" stroke-linecap="round" stroke-linejoin="round"/>
<rect x="367.176" y="135.226" width="74.3176" height="7.50682" rx="3.75341" stroke="#A9DEFE" stroke-width="3.33781"/>
<path d="M368.845 138.98C368.845 137.828 369.778 136.895 370.929 136.895H413.551V141.064H370.929C369.778 141.064 368.845 140.131 368.845 138.98Z" fill="#A9DEFE" stroke="#A9DEFE" stroke-width="3.33781"/>
<line x1="550.958" y1="243.493" x2="550.958" y2="264.928" stroke="#02365E" stroke-width="3.33781" stroke-linecap="round"/>
<line x1="543.286" y1="243.492" x2="543.286" y2="264.927" stroke="#02365E" stroke-width="3.33781" stroke-linecap="round"/>
<line x1="535.613" y1="243.492" x2="535.613" y2="264.927" stroke="#02365E" stroke-width="3.33781" stroke-linecap="round"/>
<line x1="527.941" y1="243.492" x2="527.941" y2="264.927" stroke="#02365E" stroke-width="3.33781" stroke-linecap="round"/>
<path d="M489.53 292.623C489.53 276.338 502.317 262.922 518.584 262.141L530.896 261.55C538.407 261.189 545.934 261.735 553.315 263.175L575.947 267.591V292.623H489.53Z" fill="#FFB260"/>
<path d="M575.947 292.623V294.525H577.85V292.623H575.947ZM575.947 267.591H577.85C577.85 266.681 577.205 265.898 576.312 265.724L575.947 267.591ZM530.896 261.55L530.805 259.649L530.896 261.55ZM518.584 262.141L518.675 264.041L518.584 262.141ZM518.675 264.041L530.987 263.45L530.805 259.649L518.492 260.241L518.675 264.041ZM575.947 290.72H489.53V294.525H575.947V290.72ZM552.951 265.042L575.583 269.458L576.312 265.724L553.679 261.307L552.951 265.042ZM574.045 267.591V292.623H577.85V267.591H574.045ZM530.987 263.45C538.346 263.097 545.72 263.631 552.951 265.042L553.679 261.307C546.149 259.838 538.468 259.281 530.805 259.649L530.987 263.45ZM518.492 260.241C501.212 261.07 487.628 275.322 487.628 292.623H491.433C491.433 277.353 503.423 264.774 518.675 264.041L518.492 260.241Z" fill="#02365E"/>
<path d="M526.566 292.281C526.566 280.729 535.574 271.18 547.107 270.508L575.948 268.825V292.281H526.566Z" fill="#F2463A"/>
<path d="M575.948 268.825H577.85C577.85 268.302 577.634 267.801 577.253 267.441C576.872 267.082 576.36 266.896 575.837 266.926L575.948 268.825ZM575.948 292.281V294.184H577.85V292.281H575.948ZM547.218 272.407L576.058 270.725L575.837 266.926L546.996 268.608L547.218 272.407ZM574.045 268.825V292.281H577.85V268.825H574.045ZM575.948 290.379H526.566V294.184H575.948V290.379ZM546.996 268.608C534.457 269.34 524.664 279.721 524.664 292.281H528.469C528.469 281.737 536.691 273.021 547.218 272.407L546.996 268.608Z" fill="#02365E"/>
<path d="M470.529 244.905C470.529 249.521 466.777 253.264 462.148 253.264C460.439 253.264 456.854 253.264 456.854 253.264C454.913 249.311 456.854 239.458 456.854 236.545C456.854 236.545 457.519 236.545 462.148 236.545C466.777 236.545 470.529 240.288 470.529 244.905Z" fill="#F2463A" stroke="#02365E" stroke-width="3.80511"/>
<circle cx="455.627" cy="244.905" r="8.35936" fill="#FED9AF" stroke="#02365E" stroke-width="3.80511"/>
<path d="M501.784 244.905C501.784 249.521 498.032 253.264 493.403 253.264C491.694 253.264 488.109 253.264 488.109 253.264C486.168 249.311 488.109 239.458 488.109 236.545C488.109 236.545 488.774 236.545 493.403 236.545C498.032 236.545 501.784 240.288 501.784 244.905Z" fill="#F2463A" stroke="#02365E" stroke-width="3.80511"/>
<circle cx="486.883" cy="244.905" r="8.35936" fill="#FED9AF" stroke="#02365E" stroke-width="3.80511"/>
<line x1="2.78151" y1="296.731" x2="626.952" y2="296.731" stroke="#02365E" stroke-width="5.56302" stroke-linecap="round"/>
</svg>
