<svg width="1271" height="895" viewBox="0 0 1271 895" fill="none" xmlns="http://www.w3.org/2000/svg">
<mask id="path-1-inside-1_101_322" fill="white">
<path d="M0 9.99999C0 4.47715 4.47715 0 10 0H1115.08H1167.05H1220.21H1261C1266.52 0 1271 4.47715 1271 10V59.4854V129.316V866.117C1271 871.64 1266.52 876.117 1261 876.117H9.99999C4.47714 876.117 0 871.64 0 866.117V129.316V59.4854V9.99999Z"/>
</mask>
<path d="M0 9.99999C0 4.47715 4.47715 0 10 0H1115.08H1167.05H1220.21H1261C1266.52 0 1271 4.47715 1271 10V59.4854V129.316V866.117C1271 871.64 1266.52 876.117 1261 876.117H9.99999C4.47714 876.117 0 871.64 0 866.117V129.316V59.4854V9.99999Z" fill="#C4C4C4"/>
<path d="M0 57.4854C-1.10457 57.4854 -2 58.3809 -2 59.4854C-2 60.59 -1.10457 61.4854 0 61.4854V57.4854ZM1271 61.4854C1272.1 61.4854 1273 60.59 1273 59.4854C1273 58.3809 1272.1 57.4854 1271 57.4854V61.4854ZM1222.21 0C1222.21 -1.10457 1221.31 -2 1220.21 -2C1219.1 -2 1218.21 -1.10457 1218.21 0H1222.21ZM1169.05 0C1169.05 -1.10457 1168.16 -2 1167.05 -2C1165.95 -2 1165.05 -1.10457 1165.05 0H1169.05ZM1117.08 0C1117.08 -1.10457 1116.18 -2 1115.08 -2C1113.97 -2 1113.08 -1.10457 1113.08 0H1117.08ZM0 127.316C-1.10457 127.316 -2 128.212 -2 129.316C-2 130.421 -1.10457 131.316 0 131.316V127.316ZM1271 131.316C1272.1 131.316 1273 130.421 1273 129.316C1273 128.212 1272.1 127.316 1271 127.316V131.316ZM1123.94 44.5538C1122.83 44.5538 1121.94 45.4492 1121.94 46.5538C1121.94 47.6584 1122.83 48.5538 1123.94 48.5538V44.5538ZM1157.01 48.5538C1158.12 48.5538 1159.01 47.6584 1159.01 46.5538C1159.01 45.4492 1158.12 44.5538 1157.01 44.5538V48.5538ZM1235.84 17.3825C1235.08 16.5769 1233.82 16.5365 1233.01 17.2922C1232.21 18.048 1232.17 19.3136 1232.92 20.1192L1235.84 17.3825ZM1254.74 44.0029C1255.47 44.8286 1256.74 44.903 1257.56 44.1692C1258.39 43.4355 1258.46 42.1713 1257.73 41.3457L1254.74 44.0029ZM1257.73 20.0795C1258.46 19.2538 1258.39 17.9897 1257.56 17.2559C1256.74 16.5221 1255.47 16.5966 1254.74 17.4222L1257.73 20.0795ZM1232.92 41.306C1232.17 42.1115 1232.21 43.3772 1233.01 44.1329C1233.82 44.8887 1235.08 44.8483 1235.84 44.0427L1232.92 41.306ZM1220.21 61.4854H1271V57.4854H1220.21V61.4854ZM1222.21 59.4854V0H1218.21V59.4854H1222.21ZM1165.05 0V59.4854H1169.05V0H1165.05ZM1115.08 61.4854H1167.05V57.4854H1115.08V61.4854ZM1117.08 59.4854V0H1113.08V59.4854H1117.08ZM276.179 85.0034V105.738H280.179V85.0034H276.179ZM288.179 117.738H1170.64V113.738H288.179V117.738ZM1182.64 105.738V85.0034H1178.64V105.738H1182.64ZM1170.64 73.0034H288.179V77.0034H1170.64V73.0034ZM1167.05 61.4854H1193.63V57.4854H1167.05V61.4854ZM1193.63 61.4854H1220.21V57.4854H1193.63V61.4854ZM1193.63 131.316H1271V127.316H1193.63V131.316ZM1191.63 59.4854V129.316H1195.63V59.4854H1191.63ZM0 61.4854H204.943V57.4854H0V61.4854ZM204.943 61.4854H1115.08V57.4854H204.943V61.4854ZM0 131.316H204.943V127.316H0V131.316ZM204.943 131.316H1193.63V127.316H204.943V131.316ZM202.943 59.4854V129.316H206.943V59.4854H202.943ZM29.4902 155.886H1210.21V151.886H29.4902V155.886ZM1218.21 163.886V838.314H1222.21V163.886H1218.21ZM1210.21 846.314H29.4902V850.314H1210.21V846.314ZM21.4902 838.314V163.886H17.4902V838.314H21.4902ZM1242.02 850.314H1246.23V846.314H1242.02V850.314ZM1246.23 151.886H1242.02V155.886H1246.23V151.886ZM1258.23 439.028V229.536H1254.23V439.028H1258.23ZM1230.02 229.536V439.028H1234.02V229.536H1230.02ZM1123.94 48.5538H1157.01V44.5538H1123.94V48.5538ZM1232.92 20.1192L1244.14 32.081L1247.06 29.3442L1235.84 17.3825L1232.92 20.1192ZM1244.11 32.0412L1254.74 44.0029L1257.73 41.3457L1247.1 29.384L1244.11 32.0412ZM1247.1 32.0412L1257.73 20.0795L1254.74 17.4222L1244.11 29.384L1247.1 32.0412ZM1186.5 48.5538H1198.99V44.5538H1186.5V48.5538ZM1204.46 12.8714H1181.03V16.8714H1204.46V12.8714ZM1174.5 23.9235V36.5538H1178.5V23.9235H1174.5ZM1210.99 36.5538V23.9235H1206.99V36.5538H1210.99ZM1176.5 25.9235H1208.99V21.9235H1176.5V25.9235ZM1210.99 23.9235V19.3974H1206.99V23.9235H1210.99ZM1174.5 19.3974V23.9235H1178.5V19.3974H1174.5ZM1208.99 17.3974H1176.5V21.3974H1208.99V17.3974ZM1244.14 29.3442L1232.92 41.306L1235.84 44.0427L1247.06 32.081L1244.14 29.3442ZM1230.02 163.886V183.629H1234.02V163.886H1230.02ZM1230.02 183.629V229.536H1234.02V183.629H1230.02ZM1258.23 229.536V183.629H1254.23V229.536H1258.23ZM1258.23 183.629V163.886H1254.23V183.629H1258.23ZM1232.02 185.629H1256.23V181.629H1232.02V185.629ZM1230.02 439.028V817.278H1234.02V439.028H1230.02ZM1230.02 817.278V838.314H1234.02V817.278H1230.02ZM1258.23 838.314V817.278H1254.23V838.314H1258.23ZM1258.23 817.278V439.028H1254.23V817.278H1258.23ZM1232.02 819.278H1256.23V815.278H1232.02V819.278ZM1242.13 229.536V439.028H1246.13V229.536H1242.13ZM1252.18 439.028V229.536H1248.18V439.028H1252.18ZM1236.07 229.536V439.028H1240.07V229.536H1236.07ZM1232.02 441.028H1235.05V437.028H1232.02V441.028ZM1235.05 441.028H1238.07V437.028H1235.05V441.028ZM1238.07 227.536H1235.05V231.536H1238.07V227.536ZM1235.05 227.536H1232.02V231.536H1235.05V227.536ZM1237.05 439.028V229.536H1233.05V439.028H1237.05ZM1244.13 227.536H1241.1V231.536H1244.13V227.536ZM1241.1 227.536H1238.07V231.536H1241.1V227.536ZM1238.07 441.028H1241.1V437.028H1238.07V441.028ZM1241.1 441.028H1244.13V437.028H1241.1V441.028ZM1239.1 229.536V439.028H1243.1V229.536H1239.1ZM1244.13 441.028H1247.15V437.028H1244.13V441.028ZM1247.15 441.028H1250.18V437.028H1247.15V441.028ZM1250.18 227.536H1247.15V231.536H1250.18V227.536ZM1247.15 227.536H1244.13V231.536H1247.15V227.536ZM1249.15 439.028V229.536H1245.15V439.028H1249.15ZM1256.23 227.536H1253.21V231.536H1256.23V227.536ZM1253.21 227.536H1250.18V231.536H1253.21V227.536ZM1250.18 441.028H1253.21V437.028H1250.18V441.028ZM1253.21 441.028H1256.23V437.028H1253.21V441.028ZM1251.21 229.536V439.028H1255.21V229.536H1251.21ZM1204.46 16.8714C1205.85 16.8714 1206.99 18.0023 1206.99 19.3974H1210.99C1210.99 15.7932 1208.06 12.8714 1204.46 12.8714V16.8714ZM1198.99 48.5538C1205.61 48.5538 1210.99 43.1812 1210.99 36.5538H1206.99C1206.99 40.9721 1203.4 44.5538 1198.99 44.5538V48.5538ZM1186.5 44.5538C1182.08 44.5538 1178.5 40.9721 1178.5 36.5538H1174.5C1174.5 43.1812 1179.87 48.5538 1186.5 48.5538V44.5538ZM1181.03 12.8714C1177.42 12.8714 1174.5 15.7932 1174.5 19.3974H1178.5C1178.5 18.0023 1179.63 16.8714 1181.03 16.8714V12.8714ZM1246.23 155.886C1250.65 155.886 1254.23 159.468 1254.23 163.886H1258.23C1258.23 157.259 1252.86 151.886 1246.23 151.886V155.886ZM1246.23 850.314C1252.86 850.314 1258.23 844.941 1258.23 838.314H1254.23C1254.23 842.732 1250.65 846.314 1246.23 846.314V850.314ZM1242.02 846.314C1237.6 846.314 1234.02 842.732 1234.02 838.314H1230.02C1230.02 844.941 1235.39 850.314 1242.02 850.314V846.314ZM1182.64 85.0034C1182.64 78.3759 1177.26 73.0034 1170.64 73.0034V77.0034C1175.05 77.0034 1178.64 80.5851 1178.64 85.0034H1182.64ZM1170.64 117.738C1177.26 117.738 1182.64 112.365 1182.64 105.738H1178.64C1178.64 110.156 1175.05 113.738 1170.64 113.738V117.738ZM276.179 105.738C276.179 112.365 281.551 117.738 288.179 117.738V113.738C283.761 113.738 280.179 110.156 280.179 105.738H276.179ZM280.179 85.0034C280.179 80.5851 283.761 77.0034 288.179 77.0034V73.0034C281.551 73.0034 276.179 78.3759 276.179 85.0034H280.179ZM1242.02 151.886C1235.39 151.886 1230.02 157.259 1230.02 163.886H1234.02C1234.02 159.468 1237.6 155.886 1242.02 155.886V151.886ZM1218.21 838.314C1218.21 842.732 1214.63 846.314 1210.21 846.314V850.314C1216.83 850.314 1222.21 844.941 1222.21 838.314H1218.21ZM29.4902 846.314C25.0719 846.314 21.4902 842.732 21.4902 838.314H17.4902C17.4902 844.941 22.8628 850.314 29.4902 850.314V846.314ZM1210.21 155.886C1214.63 155.886 1218.21 159.468 1218.21 163.886H1222.21C1222.21 157.259 1216.83 151.886 1210.21 151.886V155.886ZM29.4902 151.886C22.8628 151.886 17.4902 157.259 17.4902 163.886H21.4902C21.4902 159.468 25.072 155.886 29.4902 155.886V151.886ZM1261 872.117H9.99999V880.117H1261V872.117ZM4 59.4854V9.99999H-4V59.4854H4ZM1267 10V59.4854H1275V10H1267ZM1220.21 4H1261V-4H1220.21V4ZM1167.05 4H1220.21V-4H1167.05V4ZM10 4H1115.08V-4H10V4ZM1115.08 4H1167.05V-4H1115.08V4ZM4 866.117V129.316H-4V866.117H4ZM4 129.316V59.4854H-4V129.316H4ZM1267 59.4854V129.316H1275V59.4854H1267ZM1267 129.316V866.117H1275V129.316H1267ZM9.99999 872.117C6.68629 872.117 4 869.431 4 866.117H-4C-4 873.849 2.268 880.117 9.99999 880.117V872.117ZM1275 10C1275 2.26801 1268.73 -4 1261 -4V4C1264.31 4 1267 6.68629 1267 10H1275ZM1261 880.117C1268.73 880.117 1275 873.849 1275 866.117H1267C1267 869.431 1264.31 872.117 1261 872.117V880.117ZM4 9.99999C4 6.68629 6.68629 4 10 4V-4C2.26802 -4 -4 2.268 -4 9.99999H4Z" fill="#02365E" mask="url(#path-1-inside-1_101_322)"/>
<path d="M1242.55 162.469C1243.3 161.047 1245.34 161.047 1246.09 162.469L1251.99 173.648C1252.69 174.98 1251.72 176.582 1250.22 176.582H1238.42C1236.91 176.582 1235.95 174.98 1236.65 173.648L1242.55 162.469Z" fill="#02365E"/>
<path d="M1242.53 838.581C1243.27 840.055 1245.37 840.055 1246.11 838.581L1252.09 826.619C1252.75 825.289 1251.79 823.724 1250.3 823.724H1238.34C1236.85 823.724 1235.88 825.289 1236.55 826.619L1242.53 838.581Z" fill="#02365E"/>
<path d="M235.658 79.8761C241.324 81.6856 245.468 87.4677 245.468 94.321C245.468 101.959 240.321 108.266 233.657 109.227M235.658 79.8761L237.922 85.9696M235.658 79.8761L240.94 77.6183M228.112 108.766C222.446 106.956 218.302 101.174 218.302 94.321C218.302 86.6833 223.449 80.3761 230.113 79.4153M228.112 108.766L226.603 103.09M228.112 108.766L222.829 110.606" stroke="#02365E" stroke-width="4" stroke-linecap="round" stroke-linejoin="round"/>
<mask id="path-6-inside-2_101_322" fill="white">
<path d="M0 10V59.4644H204.943H1115.08V0H10C4.47715 0 0 4.47716 0 10Z"/>
<path d="M1181.03 14.8661H1204.46C1206.96 14.8661 1208.99 16.8918 1208.99 19.3906V23.915H1176.5V19.3906C1176.5 16.8918 1178.53 14.8661 1181.03 14.8661Z"/>
</mask>
<path d="M0 10V59.4644H204.943H1115.08V0H10C4.47715 0 0 4.47716 0 10Z" fill="#006EAD"/>
<path d="M1181.03 14.8661H1204.46C1206.96 14.8661 1208.99 16.8918 1208.99 19.3906V23.915H1176.5V19.3906C1176.5 16.8918 1178.53 14.8661 1181.03 14.8661Z" fill="#006EAD"/>
<path d="M1269 10V59.4644H1273V10H1269ZM1220.21 2H1261V-2H1220.21V2ZM1167.05 2H1220.21V-2H1167.05V2ZM1115.08 61.4644H1167.05V57.4644H1115.08V61.4644ZM1115.08 2H1167.05V-2H1115.08V2ZM2 894.551V129.27H-2V894.551H2ZM2 129.27V59.4644H-2V129.27H2ZM1269 59.4644V129.27H1273V59.4644H1269ZM1167.05 61.4644H1193.63V57.4644H1167.05V61.4644ZM1193.63 61.4644H1220.21V57.4644H1193.63V61.4644ZM1123.94 48.5373H1157.01V44.5373H1123.94V48.5373ZM1230.5 16.1683L1244.09 32.0039L1247.12 29.3995L1233.54 13.5639L1230.5 16.1683ZM1244.09 32.0039L1257.67 47.8395L1260.71 45.2352L1247.12 29.3995L1244.09 32.0039ZM1247.12 32.0039L1260.71 16.1683L1257.67 13.5639L1244.09 29.3995L1247.12 32.0039ZM1244.09 29.3995L1230.5 45.2352L1233.54 47.8395L1247.12 32.0039L1244.09 29.3995ZM1174.5 23.915V46.5373H1178.5V23.915H1174.5ZM1210.99 46.5373V23.915H1206.99V46.5373H1210.99ZM1208.99 17.3906H1176.5V21.3906H1208.99V17.3906ZM1273 10C1273 3.37258 1267.63 -2 1261 -2V2C1265.42 2 1269 5.58173 1269 10H1273ZM0 59.4644H-4V63.4644H0V59.4644ZM1115.08 59.4644V63.4644H1119.08V59.4644H1115.08ZM1115.08 0H1119.08V-4H1115.08V0ZM1176.5 23.915H1172.5V27.915H1176.5V23.915ZM1208.99 23.915V27.915H1212.99V23.915H1208.99ZM4 59.4644V10H-4V59.4644H4ZM10 4H1115.08V-4H10V4ZM1119.08 59.4644V0H1111.08V59.4644H1119.08ZM0 63.4644H204.943V55.4644H0V63.4644ZM204.943 63.4644H1115.08V55.4644H204.943V63.4644ZM1204.46 10.8661H1181.03V18.8661H1204.46V10.8661ZM1176.5 27.915H1208.99V19.915H1176.5V27.915ZM1212.99 23.915V19.3906H1204.99V23.915H1212.99ZM1172.5 19.3906V23.915H1180.5V19.3906H1172.5ZM1181.03 10.8661C1176.32 10.8661 1172.5 14.6827 1172.5 19.3906H1180.5C1180.5 19.1009 1180.74 18.8661 1181.03 18.8661V10.8661ZM1204.46 18.8661C1204.75 18.8661 1204.99 19.101 1204.99 19.3906H1212.99C1212.99 14.6825 1209.17 10.8661 1204.46 10.8661V18.8661ZM4 10C4 6.68629 6.68629 4 10 4V-4C2.26801 -4 -4 2.26802 -4 10H4Z" fill="#02365E" mask="url(#path-6-inside-2_101_322)"/>
<mask id="path-8-outside-3_101_322" maskUnits="userSpaceOnUse" x="15.4043" y="70.7076" width="1210" height="782" fill="black">
<rect fill="white" x="15.4043" y="70.7076" width="1210" height="782"/>
<path d="M263.414 105.44V84.7076C263.414 79.1848 267.891 74.7076 273.414 74.7076H1170.96C1176.49 74.7076 1180.96 79.1848 1180.96 84.7076V105.44C1180.96 110.963 1176.49 115.44 1170.96 115.44H273.414C267.891 115.44 263.414 110.963 263.414 105.44Z"/>
<path d="M1210.55 153.587H29.4043C23.8814 153.587 19.4043 158.064 19.4043 163.587V837.98C19.4043 843.503 23.8814 847.98 29.4043 847.98H1210.55C1216.07 847.98 1220.55 843.503 1220.55 837.98V163.587C1220.55 158.064 1216.07 153.587 1210.55 153.587Z"/>
</mask>
<path d="M263.414 105.44V84.7076C263.414 79.1848 267.891 74.7076 273.414 74.7076H1170.96C1176.49 74.7076 1180.96 79.1848 1180.96 84.7076V105.44C1180.96 110.963 1176.49 115.44 1170.96 115.44H273.414C267.891 115.44 263.414 110.963 263.414 105.44Z" fill="white"/>
<path d="M1210.55 153.587H29.4043C23.8814 153.587 19.4043 158.064 19.4043 163.587V837.98C19.4043 843.503 23.8814 847.98 29.4043 847.98H1210.55C1216.07 847.98 1220.55 843.503 1220.55 837.98V163.587C1220.55 158.064 1216.07 153.587 1210.55 153.587Z" fill="white"/>
<path d="M263.414 105.44V84.7076C263.414 79.1848 267.891 74.7076 273.414 74.7076H1170.96C1176.49 74.7076 1180.96 79.1848 1180.96 84.7076V105.44C1180.96 110.963 1176.49 115.44 1170.96 115.44H273.414C267.891 115.44 263.414 110.963 263.414 105.44Z" stroke="#02365E" stroke-width="8" mask="url(#path-8-outside-3_101_322)"/>
<path d="M1210.55 153.587H29.4043C23.8814 153.587 19.4043 158.064 19.4043 163.587V837.98C19.4043 843.503 23.8814 847.98 29.4043 847.98H1210.55C1216.07 847.98 1220.55 843.503 1220.55 837.98V163.587C1220.55 158.064 1216.07 153.587 1210.55 153.587Z" stroke="#02365E" stroke-width="8" mask="url(#path-8-outside-3_101_322)"/>
<path fill-rule="evenodd" clip-rule="evenodd" d="M93.5135 113.04L116.555 94.0086L93.5135 74.9769V84.9597H71.6534V101.765H93.5135V113.04Z" fill="#02365E"/>
<path fill-rule="evenodd" clip-rule="evenodd" d="M33.2502 113.04L10.2086 94.0087L33.2502 74.9769V84.9598H55.1104V101.765H33.2502V113.04Z" fill="#02365E"/>
<path fill-rule="evenodd" clip-rule="evenodd" d="M163.229 72.3915L181.544 90.2016H181.544V90.2019L181.544 90.2021H181.544V116.361H169.843V97.4376H161.703V116.361H144.914V90.2016H144.915L163.229 72.3915Z" fill="#02365E"/>
<rect x="1205.99" y="82.4695" width="50.4519" height="33.958" rx="1" fill="#02365E"/>
<path d="M1208.11 74.3601C1208.27 73.9836 1208.63 73.7374 1209.04 73.7374H1224.3C1224.7 73.7374 1225.07 73.9836 1225.22 74.3601L1226.78 78.1815C1227.05 78.8392 1226.56 79.5588 1225.85 79.5588H1207.48C1206.77 79.5588 1206.29 78.8392 1206.56 78.1815L1208.11 74.3601Z" fill="#02365E"/>
</svg>
