<?xml version="1.0" standalone="no"?>
<!DOCTYPE svg PUBLIC "-//W3C//DTD SVG 20010904//EN"
 "http://www.w3.org/TR/2001/REC-SVG-20010904/DTD/svg10.dtd">
<svg version="1.0" xmlns="http://www.w3.org/2000/svg"
 width="1300.000000pt" height="400.000000pt" viewBox="0 0 1300.000000 400.000000"
 preserveAspectRatio="xMidYMid meet">

<g transform="translate(0.000000,400.000000) scale(0.100000,-0.100000)"
fill="#000000" stroke="none">
<path d="M10997 3599 c-84 -20 -147 -77 -168 -151 -7 -24 -15 -47 -19 -51 -4
-4 -63 -25 -131 -46 -88 -27 -125 -42 -127 -54 -3 -15 10 -17 127 -17 72 0
131 -3 131 -7 0 -5 7 -39 15 -77 8 -37 19 -124 25 -192 27 -307 136 -496 379
-656 99 -65 190 -93 306 -92 101 0 163 16 261 69 l61 33 194 -150 c107 -83
209 -162 227 -176 96 -74 36 18 -483 739 -295 409 -549 755 -563 767 -61 53
-162 79 -235 61z m393 -371 c65 -54 48 -101 -18 -52 -48 35 -62 53 -55 70 8
22 31 16 73 -18z m-70 -74 c41 -52 42 -56 26 -72 -16 -16 -20 -14 -62 33 -41
47 -52 73 -37 88 15 16 33 4 73 -49z m-127 -48 c21 -43 17 -66 -12 -66 -26 0
-57 75 -40 96 17 21 32 13 52 -30z m340 -148 c24 -22 296 -351 310 -375 6 -9
-4 -11 -34 -10 -33 1 -45 -3 -56 -20 l-15 -22 -41 30 c-36 26 -49 30 -85 26
-42 -5 -46 -2 -109 56 -72 67 -113 138 -113 192 0 63 54 145 96 145 13 0 34
-10 47 -22z"/>
<path d="M1880 2744 c0 -15 564 -774 573 -771 6 2 16 12 24 23 12 18 -11 52
-255 387 l-267 367 -37 0 c-21 0 -38 -2 -38 -6z"/>
<path d="M3500 1910 l0 -840 -155 0 -155 0 0 -45 0 -45 230 0 230 0 0 293 c0
220 -4 309 -15 362 -19 89 -19 203 0 280 11 47 14 144 15 448 l0 387 -75 0
-75 0 0 -840z"/>
<path d="M5600 2495 l0 -235 75 0 75 0 0 235 0 235 -75 0 -75 0 0 -235z"/>
<path d="M6590 1900 l0 -830 -155 0 -155 0 0 -45 0 -45 230 0 230 0 0 90 0 90
-34 0 -35 0 35 74 34 75 0 710 0 711 -75 0 -75 0 0 -830z"/>
<path d="M7603 2208 c3 -7 120 -263 261 -570 141 -306 256 -559 256 -562 0 -3
-52 -6 -115 -6 -67 0 -115 -4 -115 -10 0 -5 8 -25 17 -45 l17 -35 174 0 c103
0 172 4 170 9 -1 5 -129 284 -283 620 l-280 611 -54 0 c-39 0 -52 -3 -48 -12z"/>
<path d="M10373 2198 c-6 -7 -78 -122 -162 -255 l-151 -241 210 -314 211 -313
-151 -3 -151 -3 31 -44 31 -45 195 0 194 0 -211 316 -210 316 131 209 c111
175 134 219 145 274 8 35 19 73 24 84 6 11 11 22 11 25 0 12 -138 6 -147 -6z"/>
<path d="M11424 2163 c14 -21 26 -42 26 -48 0 -6 -41 -48 -91 -94 l-91 -84 59
-27 c33 -15 66 -36 74 -47 13 -19 18 -16 108 68 l93 89 -26 43 c-27 48 -67 82
-134 116 l-44 22 26 -38z"/>
<path d="M4889 2157 c12 -15 6 -26 -45 -92 -105 -135 -120 -158 -107 -162 7
-2 40 -22 74 -44 34 -22 65 -36 68 -32 3 5 27 37 54 70 l47 61 0 80 0 79 -52
28 c-34 19 -48 23 -39 12z"/>
<path d="M9248 2158 c10 -13 -1 -33 -79 -132 -50 -65 -89 -118 -87 -119 1 -1
25 -13 51 -27 27 -14 55 -33 64 -42 23 -26 28 -23 68 28 l35 47 0 111 0 112
-32 19 c-25 14 -30 15 -20 3z"/>
<path d="M4360 2005 c-174 -49 -281 -208 -250 -372 20 -110 74 -183 135 -183
31 0 36 3 30 17 -65 170 13 352 183 431 48 22 71 26 144 27 49 0 88 1 88 2 0
2 -17 13 -37 26 -95 58 -201 77 -293 52z"/>
<path d="M8733 2010 c-97 -20 -205 -104 -244 -193 -66 -146 4 -367 116 -367
l33 0 -15 48 c-21 69 -13 174 20 238 39 77 124 149 204 174 71 22 130 25 181
11 17 -5 32 -8 32 -5 0 12 -103 67 -159 84 -67 21 -100 23 -168 10z"/>
<path d="M11002 2004 c-27 -14 -54 -58 -41 -68 2 -1 37 -16 77 -34 61 -26 74
-29 79 -16 9 23 58 44 103 44 37 0 40 2 31 19 -29 53 -185 88 -249 55z"/>
<path d="M5600 1400 l0 -330 -155 0 -155 0 0 -45 0 -45 230 0 230 0 0 330 0
330 110 0 110 0 0 45 0 45 -185 0 -185 0 0 -330z"/>
<path d="M11409 1665 c19 -22 46 -64 60 -95 35 -74 36 -200 4 -273 -46 -100
-162 -191 -293 -228 -61 -17 -242 -15 -310 4 l-55 15 25 -20 c35 -29 114 -64
185 -83 76 -19 233 -20 308 0 174 45 293 168 312 320 19 150 -74 296 -245 385
-22 12 -21 9 9 -25z"/>
<path d="M2080 1350 l0 -280 -155 0 -155 0 0 -45 0 -45 230 0 230 0 0 228 0
227 -68 97 c-37 53 -70 97 -74 98 -5 0 -8 -126 -8 -280z"/>
<path d="M7402 1575 c-11 -23 -10 -25 14 -25 20 0 25 4 20 16 -3 9 -6 20 -6
25 0 18 -17 8 -28 -16z"/>
<path d="M10950 1580 c8 -6 24 -15 35 -21 16 -8 15 -6 -4 10 -13 12 -28 21
-35 21 -6 0 -4 -5 4 -10z"/>
<path d="M2745 1359 c-71 -101 -132 -187 -134 -192 -4 -10 88 -147 99 -147 4
0 44 52 89 115 l82 115 -3 146 -3 146 -130 -183z"/>
<path d="M9202 1357 l-22 -23 41 -55 40 -54 -41 -36 c-52 -45 -170 -104 -252
-126 -114 -30 -282 -21 -413 22 -57 19 92 -62 158 -87 217 -79 461 -44 645 94
43 32 51 42 41 54 -7 8 -30 14 -55 14 l-44 0 0 61 c0 61 -7 76 -70 152 -3 4
-16 -3 -28 -16z"/>
<path d="M9780 1227 l0 -157 -90 0 -90 0 0 -45 0 -45 160 0 160 0 0 100 0 101
-61 92 c-34 51 -66 96 -70 102 -5 5 -9 -59 -9 -148z"/>
<path d="M4842 1354 l-22 -15 40 -53 c22 -29 40 -57 40 -63 0 -12 -98 -82
-155 -111 -22 -11 -74 -30 -115 -43 -100 -31 -270 -31 -375 -1 -80 23 -71 11
29 -39 132 -68 335 -91 476 -54 115 30 292 132 287 165 -1 9 -15 16 -35 18
-29 3 -32 6 -32 39 0 27 -12 52 -51 104 -28 38 -54 69 -58 69 -3 0 -17 -7 -29
-16z"/>
<path d="M7214 1140 l-29 -69 -84 -3 -84 -3 -18 -42 -18 -43 175 0 175 0 34
75 34 75 171 0 c133 0 171 3 168 13 -3 7 -28 13 -65 15 -53 3 -62 6 -71 27
l-12 25 -174 0 -174 0 -28 -70z"/>
</g>
</svg>
